{
	"asset":{
		"generator":"Khronos glTF Blender I/O v5.2.39",
		"version":"2.0"
	},
	"scene":0,
	"scenes":[
		{
			"name":"Scene",
			"nodes":[
				0
			]
		}
	],
	"nodes":[
		{
			"mesh":0,
			"name":"well.01"
		}
	],
	"materials":[
		{
			"doubleSided":true,
			"name":"tile.03",
			"pbrMetallicRoughness":{
				"baseColorFactor":[
					0.3704208433628082,
					0.0621865838766098,
					0.00731152668595314,
					1
				],
				"metallicFactor":0,
				"roughnessFactor":0.5
			}
		},
		{
			"doubleSided":true,
			"name":"stone.01",
			"pbrMetallicRoughness":{
				"baseColorFactor":[
					0.08337493240833282,
					0.08337493240833282,
					0.08337493240833282,
					1
				],
				"metallicFactor":0,
				"roughnessFactor":0.9102563858032227
			}
		},
		{
			"doubleSided":true,
			"name":"wood.01",
			"pbrMetallicRoughness":{
				"baseColorFactor":[
					0.12468796223402023,
					0.03618776425719261,
					0.008114634081721306,
					1
				],
				"metallicFactor":0,
				"roughnessFactor":0.7004662156105042
			}
		},
		{
			"doubleSided":true,
			"name":"stone.02",
			"pbrMetallicRoughness":{
				"baseColorFactor":[
					0.05699639767408371,
					0.06724710762500763,
					0.05747038125991821,
					1
				],
				"metallicFactor":0,
				"roughnessFactor":0.8053613305091858
			}
		},
		{
			"doubleSided":true,
			"name":"stone.04",
			"pbrMetallicRoughness":{
				"baseColorFactor":[
					0.1387929618358612,
					0.1387929618358612,
					0.1387929618358612,
					1
				],
				"metallicFactor":0,
				"roughnessFactor":0.8543123602867126
			}
		},
		{
			"doubleSided":true,
			"name":"stone.03",
			"pbrMetallicRoughness":{
				"baseColorFactor":[
					0.02687476947903633,
					0.02687476947903633,
					0.02687476947903633,
					1
				],
				"metallicFactor":0,
				"roughnessFactor":0.8006992936134338
			}
		},
		{
			"doubleSided":true,
			"name":"tile.02",
			"pbrMetallicRoughness":{
				"baseColorFactor":[
					0.33628857135772705,
					0.06360865384340286,
					0.05199679732322693,
					1
				],
				"metallicFactor":0,
				"roughnessFactor":0.5
			}
		},
		{
			"doubleSided":true,
			"name":"tile.01",
			"pbrMetallicRoughness":{
				"baseColorFactor":[
					0.8000074625015259,
					0.10375835001468658,
					0.05830107256770134,
					1
				],
				"metallicFactor":0,
				"roughnessFactor":0.5116550326347351
			}
		},
		{
			"doubleSided":true,
			"name":"tile.04",
			"pbrMetallicRoughness":{
				"baseColorFactor":[
					0.24516886472702026,
					0.032463438808918,
					0.045197196304798126,
					1
				],
				"metallicFactor":0,
				"roughnessFactor":0.7727272510528564
			}
		},
		{
			"doubleSided":true,
			"name":"rope.01",
			"pbrMetallicRoughness":{
				"baseColorFactor":[
					0.35311001539230347,
					0.20864257216453552,
					0.032952211797237396,
					1
				],
				"metallicFactor":0,
				"roughnessFactor":1.0
			}
		}
	],
	"meshes":[
		{
			"name":"well.01",
			"primitives":[
				{
					"attributes":{
						"POSITION":0,
						"NORMAL":1,
						"TEXCOORD_0":2
					},
					"indices":3,
					"material":0
				},
				{
					"attributes":{
						"POSITION":4,
						"NORMAL":5,
						"TEXCOORD_0":6
					},
					"indices":7,
					"material":1
				},
				{
					"attributes":{
						"POSITION":8,
						"NORMAL":9,
						"TEXCOORD_0":10
					},
					"indices":11,
					"material":2
				},
				{
					"attributes":{
						"POSITION":12,
						"NORMAL":13,
						"TEXCOORD_0":14
					},
					"indices":15,
					"material":3
				},
				{
					"attributes":{
						"POSITION":16,
						"NORMAL":17,
						"TEXCOORD_0":18
					},
					"indices":19,
					"material":4
				},
				{
					"attributes":{
						"POSITION":20,
						"NORMAL":21,
						"TEXCOORD_0":22
					},
					"indices":23,
					"material":5
				},
				{
					"attributes":{
						"POSITION":24,
						"NORMAL":25,
						"TEXCOORD_0":26
					},
					"indices":27,
					"material":6
				},
				{
					"attributes":{
						"POSITION":28,
						"NORMAL":29,
						"TEXCOORD_0":30
					},
					"indices":31,
					"material":7
				},
				{
					"attributes":{
						"POSITION":32,
						"NORMAL":33,
						"TEXCOORD_0":34
					},
					"indices":35,
					"material":8
				},
				{
					"attributes":{
						"POSITION":36,
						"NORMAL":37,
						"TEXCOORD_0":38
					},
					"indices":39,
					"material":9
				}
			]
		}
	],
	"accessors":[
		{
			"bufferView":0,
			"componentType":5126,
			"count":1570,
			"max":[
				1.6495590209960938,
				3.565758228302002,
				1.894034504890442
			],
			"min":[
				-1.6305601596832275,
				2.346830129623413,
				-1.8845081329345703
			],
			"type":"VEC3"
		},
		{
			"bufferView":1,
			"componentType":5126,
			"count":1570,
			"type":"VEC3"
		},
		{
			"bufferView":2,
			"componentType":5126,
			"count":1570,
			"type":"VEC2"
		},
		{
			"bufferView":3,
			"componentType":5123,
			"count":2496,
			"type":"SCALAR"
		},
		{
			"bufferView":4,
			"componentType":5126,
			"count":5472,
			"max":[
				1.0381869077682495,
				1.073476791381836,
				0.9495314955711365
			],
			"min":[
				-0.8995303511619568,
				0.004421517252922058,
				-1.001725435256958
			],
			"type":"VEC3"
		},
		{
			"bufferView":5,
			"componentType":5126,
			"count":5472,
			"type":"VEC3"
		},
		{
			"bufferView":6,
			"componentType":5126,
			"count":5472,
			"type":"VEC2"
		},
		{
			"bufferView":7,
			"componentType":5123,
			"count":7920,
			"type":"SCALAR"
		},
		{
			"bufferView":8,
			"componentType":5126,
			"count":1306,
			"max":[
				1.8749674558639526,
				3.768986225128174,
				1.3779964447021484
			],
			"min":[
				-1.8623735904693604,
				-0.05233868956565857,
				-1.3440464735031128
			],
			"type":"VEC3"
		},
		{
			"bufferView":9,
			"componentType":5126,
			"count":1306,
			"type":"VEC3"
		},
		{
			"bufferView":10,
			"componentType":5126,
			"count":1306,
			"type":"VEC2"
		},
		{
			"bufferView":11,
			"componentType":5123,
			"count":2208,
			"type":"SCALAR"
		},
		{
			"bufferView":12,
			"componentType":5126,
			"count":1512,
			"max":[
				0.8989028334617615,
				1.073476791381836,
				0.8884908556938171
			],
			"min":[
				-0.8169129490852356,
				0.004421517252922058,
				-0.9048263430595398
			],
			"type":"VEC3"
		},
		{
			"bufferView":13,
			"componentType":5126,
			"count":1512,
			"type":"VEC3"
		},
		{
			"bufferView":14,
			"componentType":5126,
			"count":1512,
			"type":"VEC2"
		},
		{
			"bufferView":15,
			"componentType":5123,
			"count":2184,
			"type":"SCALAR"
		},
		{
			"bufferView":16,
			"componentType":5126,
			"count":1224,
			"max":[
				0.9697676301002502,
				1.073476791381836,
				0.8882643580436707
			],
			"min":[
				-0.7885908484458923,
				0.016072049736976624,
				-0.9835601449012756
			],
			"type":"VEC3"
		},
		{
			"bufferView":17,
			"componentType":5126,
			"count":1224,
			"type":"VEC3"
		},
		{
			"bufferView":18,
			"componentType":5126,
			"count":1224,
			"type":"VEC2"
		},
		{
			"bufferView":19,
			"componentType":5123,
			"count":1776,
			"type":"SCALAR"
		},
		{
			"bufferView":20,
			"componentType":5126,
			"count":1008,
			"max":[
				0.7648191452026367,
				1.073476791381836,
				0.878585934638977
			],
			"min":[
				-0.8977343440055847,
				0.2990555167198181,
				-0.8545252084732056
			],
			"type":"VEC3"
		},
		{
			"bufferView":21,
			"componentType":5126,
			"count":1008,
			"type":"VEC3"
		},
		{
			"bufferView":22,
			"componentType":5126,
			"count":1008,
			"type":"VEC2"
		},
		{
			"bufferView":23,
			"componentType":5123,
			"count":1464,
			"type":"SCALAR"
		},
		{
			"bufferView":24,
			"componentType":5126,
			"count":532,
			"max":[
				1.6648085117340088,
				3.585068702697754,
				1.871748447418213
			],
			"min":[
				-1.60805082321167,
				2.4414021968841553,
				0.21364259719848633
			],
			"type":"VEC3"
		},
		{
			"bufferView":25,
			"componentType":5126,
			"count":532,
			"type":"VEC3"
		},
		{
			"bufferView":26,
			"componentType":5126,
			"count":532,
			"type":"VEC2"
		},
		{
			"bufferView":27,
			"componentType":5123,
			"count":840,
			"type":"SCALAR"
		},
		{
			"bufferView":28,
			"componentType":5126,
			"count":964,
			"max":[
				1.6648088693618774,
				3.5694479942321777,
				1.8743596076965332
			],
			"min":[
				-1.6233000755310059,
				2.3413264751434326,
				-1.8827533721923828
			],
			"type":"VEC3"
		},
		{
			"bufferView":29,
			"componentType":5126,
			"count":964,
			"type":"VEC3"
		},
		{
			"bufferView":30,
			"componentType":5126,
			"count":964,
			"type":"VEC2"
		},
		{
			"bufferView":31,
			"componentType":5123,
			"count":1536,
			"type":"SCALAR"
		},
		{
			"bufferView":32,
			"componentType":5126,
			"count":1038,
			"max":[
				1.636776328086853,
				3.5085177421569824,
				1.8928015232086182
			],
			"min":[
				-1.003366470336914,
				2.365715503692627,
				-1.8770029544830322
			],
			"type":"VEC3"
		},
		{
			"bufferView":33,
			"componentType":5126,
			"count":1038,
			"type":"VEC3"
		},
		{
			"bufferView":34,
			"componentType":5126,
			"count":1038,
			"type":"VEC2"
		},
		{
			"bufferView":35,
			"componentType":5123,
			"count":1656,
			"type":"SCALAR"
		},
		{
			"bufferView":36,
			"componentType":5126,
			"count":1056,
			"max":[
				0.3015265464782715,
				1.8189384937286377,
				0.14830660820007324
			],
			"min":[
				-0.2602243423461914,
				0.7782760858535767,
				-0.05033695697784424
			],
			"type":"VEC3"
		},
		{
			"bufferView":37,
			"componentType":5126,
			"count":1056,
			"type":"VEC3"
		},
		{
			"bufferView":38,
			"componentType":5126,
			"count":1056,
			"type":"VEC2"
		},
		{
			"bufferView":39,
			"componentType":5123,
			"count":1608,
			"type":"SCALAR"
		}
	],
	"bufferViews":[
		{
			"buffer":0,
			"byteLength":18840,
			"byteOffset":0,
			"target":34962
		},
		{
			"buffer":0,
			"byteLength":18840,
			"byteOffset":18840,
			"target":34962
		},
		{
			"buffer":0,
			"byteLength":12560,
			"byteOffset":37680,
			"target":34962
		},
		{
			"buffer":0,
			"byteLength":4992,
			"byteOffset":50240,
			"target":34963
		},
		{
			"buffer":0,
			"byteLength":65664,
			"byteOffset":55232,
			"target":34962
		},
		{
			"buffer":0,
			"byteLength":65664,
			"byteOffset":120896,
			"target":34962
		},
		{
			"buffer":0,
			"byteLength":43776,
			"byteOffset":186560,
			"target":34962
		},
		{
			"buffer":0,
			"byteLength":15840,
			"byteOffset":230336,
			"target":34963
		},
		{
			"buffer":0,
			"byteLength":15672,
			"byteOffset":246176,
			"target":34962
		},
		{
			"buffer":0,
			"byteLength":15672,
			"byteOffset":261848,
			"target":34962
		},
		{
			"buffer":0,
			"byteLength":10448,
			"byteOffset":277520,
			"target":34962
		},
		{
			"buffer":0,
			"byteLength":4416,
			"byteOffset":287968,
			"target":34963
		},
		{
			"buffer":0,
			"byteLength":18144,
			"byteOffset":292384,
			"target":34962
		},
		{
			"buffer":0,
			"byteLength":18144,
			"byteOffset":310528,
			"target":34962
		},
		{
			"buffer":0,
			"byteLength":12096,
			"byteOffset":328672,
			"target":34962
		},
		{
			"buffer":0,
			"byteLength":4368,
			"byteOffset":340768,
			"target":34963
		},
		{
			"buffer":0,
			"byteLength":14688,
			"byteOffset":345136,
			"target":34962
		},
		{
			"buffer":0,
			"byteLength":14688,
			"byteOffset":359824,
			"target":34962
		},
		{
			"buffer":0,
			"byteLength":9792,
			"byteOffset":374512,
			"target":34962
		},
		{
			"buffer":0,
			"byteLength":3552,
			"byteOffset":384304,
			"target":34963
		},
		{
			"buffer":0,
			"byteLength":12096,
			"byteOffset":387856,
			"target":34962
		},
		{
			"buffer":0,
			"byteLength":12096,
			"byteOffset":399952,
			"target":34962
		},
		{
			"buffer":0,
			"byteLength":8064,
			"byteOffset":412048,
			"target":34962
		},
		{
			"buffer":0,
			"byteLength":2928,
			"byteOffset":420112,
			"target":34963
		},
		{
			"buffer":0,
			"byteLength":6384,
			"byteOffset":423040,
			"target":34962
		},
		{
			"buffer":0,
			"byteLength":6384,
			"byteOffset":429424,
			"target":34962
		},
		{
			"buffer":0,
			"byteLength":4256,
			"byteOffset":435808,
			"target":34962
		},
		{
			"buffer":0,
			"byteLength":1680,
			"byteOffset":440064,
			"target":34963
		},
		{
			"buffer":0,
			"byteLength":11568,
			"byteOffset":441744,
			"target":34962
		},
		{
			"buffer":0,
			"byteLength":11568,
			"byteOffset":453312,
			"target":34962
		},
		{
			"buffer":0,
			"byteLength":7712,
			"byteOffset":464880,
			"target":34962
		},
		{
			"buffer":0,
			"byteLength":3072,
			"byteOffset":472592,
			"target":34963
		},
		{
			"buffer":0,
			"byteLength":12456,
			"byteOffset":475664,
			"target":34962
		},
		{
			"buffer":0,
			"byteLength":12456,
			"byteOffset":488120,
			"target":34962
		},
		{
			"buffer":0,
			"byteLength":8304,
			"byteOffset":500576,
			"target":34962
		},
		{
			"buffer":0,
			"byteLength":3312,
			"byteOffset":508880,
			"target":34963
		},
		{
			"buffer":0,
			"byteLength":12672,
			"byteOffset":512192,
			"target":34962
		},
		{
			"buffer":0,
			"byteLength":12672,
			"byteOffset":524864,
			"target":34962
		},
		{
			"buffer":0,
			"byteLength":8448,
			"byteOffset":537536,
			"target":34962
		},
		{
			"buffer":0,
			"byteLength":3216,
			"byteOffset":545984,
			"target":34963
		}
	],
	"buffers":[
		{
			"byteLength":549200,
			"uri":"well.bin"
		}
	]
}
