{
	"asset":{
		"generator":"Khronos glTF Blender I/O v5.2.40",
		"version":"2.0"
	},
	"scene":0,
	"scenes":[
		{
			"name":"Scene",
			"nodes":[
				0
			]
		}
	],
	"nodes":[
		{
			"mesh":0,
			"name":"fox",
			"scale":[
				0.26352643966674805,
				0.26352643966674805,
				0.26352643966674805
			],
			"translation":[
				0,
				1.0361522436141968,
				0.3113320469856262
			]
		}
	],
	"materials":[
		{
			"doubleSided":true,
			"name":"white_fur",
			"pbrMetallicRoughness":{
				"baseColorTexture":{
					"index":0
				},
				"metallicFactor":0
			}
		}
	],
	"meshes":[
		{
			"name":"fox",
			"primitives":[
				{
					"attributes":{
						"POSITION":0,
						"NORMAL":1,
						"TEXCOORD_0":2
					},
					"indices":3,
					"material":0
				}
			]
		}
	],
	"textures":[
		{
			"sampler":0,
			"source":0
		}
	],
	"images":[
		{
			"mimeType":"image/png",
			"name":"fox_texture",
			"uri":"textures/fox_texture.png"
		}
	],
	"accessors":[
		{
			"bufferView":0,
			"componentType":5126,
			"count":1494,
			"max":[
				1.1370928287506104,
				2.256897211074829,
				3.8987159729003906
			],
			"min":[
				-1.1370928287506104,
				-3.8451921939849854,
				-7.375430583953857
			],
			"type":"VEC3"
		},
		{
			"bufferView":1,
			"componentType":5126,
			"count":1494,
			"type":"VEC3"
		},
		{
			"bufferView":2,
			"componentType":5126,
			"count":1494,
			"type":"VEC2"
		},
		{
			"bufferView":3,
			"componentType":5123,
			"count":4851,
			"type":"SCALAR"
		}
	],
	"bufferViews":[
		{
			"buffer":0,
			"byteLength":17928,
			"byteOffset":0,
			"target":34962
		},
		{
			"buffer":0,
			"byteLength":17928,
			"byteOffset":17928,
			"target":34962
		},
		{
			"buffer":0,
			"byteLength":11952,
			"byteOffset":35856,
			"target":34962
		},
		{
			"buffer":0,
			"byteLength":9702,
			"byteOffset":47808,
			"target":34963
		}
	],
	"samplers":[
		{
			"magFilter":9729,
			"minFilter":9987
		}
	],
	"buffers":[
		{
			"byteLength":57512,
			"uri":"fox.bin"
		}
	]
}
